<svg width="22" height="22" viewBox="0 0 30 30" fill="none" xmlns="http://www.w3.org/2000/svg">
<path d="M1.46199 3.69394L1.2113 4.71716L1.7128 4.8449L5.19533 5.73318L6.88433 8.31716L10.4712 19.2929L8.35463 23.6109H9.3787C9.25887 23.8592 9.1912 24.1377 9.1912 24.4312C9.1912 25.4605 10.0203 26.3062 11.0294 26.3062C12.0386 26.3062 12.8677 25.4605 12.8677 24.4312C12.8677 24.1377 12.8 23.8592 12.6802 23.6109H18.5699C18.45 23.8592 18.3824 24.1377 18.3824 24.4312C18.3824 25.4605 19.2115 26.3062 20.2206 26.3062C21.2297 26.3062 22.0588 25.4605 22.0588 24.4312C22.0588 24.1377 21.9912 23.8592 21.8713 23.6109H22.5758V22.5562H10.0277L11.3489 19.8609H22.4314L26.4526 7.5562H7.62962L5.83412 4.8088L1.96366 3.82191L1.46199 3.69394ZM8.07033 8.61077H13.2698V11.3061H8.95119L8.07033 8.61077ZM14.3038 8.61077H18.7845V11.3061H14.3038V8.61077ZM19.8185 8.61077H25.0179L24.1371 11.3061H19.8185V8.61077ZM9.29575 12.3608H13.2698V15.0561H10.1766L9.29575 12.3608ZM14.3038 12.3608H18.7845V15.0561H14.3038V12.3608ZM19.8185 12.3608H23.7925L22.9117 15.0561H19.8185V12.3608ZM10.5213 16.1108H13.2698V18.8061H11.402L10.5213 16.1108ZM14.3038 16.1108H18.7845V18.8061H14.3038V16.1108ZM19.8185 16.1108H22.567L21.6863 18.8061H19.8185V16.1108ZM11.0294 23.6108C11.4798 23.6108 11.8337 23.9717 11.8337 24.4311C11.8337 24.8905 11.4798 25.2514 11.0294 25.2514C10.5791 25.2514 10.2252 24.8905 10.2252 24.4311C10.2252 23.9717 10.5791 23.6108 11.0294 23.6108ZM20.2206 23.6108C20.671 23.6108 21.0248 23.9717 21.0248 24.4311C21.0248 24.8905 20.671 25.2514 20.2206 25.2514C19.7702 25.2514 19.4164 24.8905 19.4164 24.4311C19.4164 23.9717 19.7702 23.6108 20.2206 23.6108Z" fill="black"/>
</svg>
