<svg width="25" height="25" viewBox="0 0 25 25" fill="none" xmlns="http://www.w3.org/2000/svg">
<path d="M12.2776 2.14893C11.9881 2.14893 11.6985 2.2138 11.4743 2.34355L4.31398 6.48543C3.86538 6.74493 3.86538 7.15527 4.31398 7.41477L11.4743 11.5566C11.9229 11.8161 12.6322 11.8161 13.0808 11.5566L20.2411 7.41477C20.6897 7.15532 20.6897 6.74493 20.2411 6.48547L13.0808 2.3436C12.8565 2.21375 12.567 2.14893 12.2776 2.14893ZM12.3648 2.73125C12.7389 2.741 13.0934 2.83359 13.3582 2.99075C13.6348 3.15795 13.789 3.38318 13.7871 3.61747C13.7853 3.85175 13.6276 4.07613 13.3484 4.24179C13.0692 4.40745 12.6911 4.501 12.2963 4.50208C11.9014 4.50316 11.5218 4.41169 11.2401 4.24757C11.0267 4.12093 10.8828 3.95899 10.8272 3.78298C10.7716 3.60697 10.8068 3.4251 10.9284 3.2612C11.05 3.09729 11.2522 2.959 11.5085 2.86445C11.7648 2.76989 12.0632 2.72348 12.3647 2.7313L12.3648 2.73125ZM6.77852 6.02132C6.77855 6.02132 6.77859 6.02132 6.77862 6.02132C7.15281 6.03105 7.50728 6.12362 7.77213 6.28077C8.05302 6.44745 8.21081 6.67351 8.2108 6.90922C8.21079 7.14494 8.05298 7.37099 7.77207 7.53766C7.49117 7.70433 7.11019 7.79796 6.71295 7.79796C6.31571 7.79795 5.93474 7.70431 5.65385 7.53763C5.44045 7.41099 5.2965 7.24905 5.24087 7.07303C5.18524 6.89702 5.22052 6.71513 5.34209 6.55122C5.46367 6.3873 5.66586 6.24901 5.92217 6.15445C6.17848 6.05989 6.47695 6.01349 6.77848 6.02132H6.77852ZM12.321 6.03275C12.6153 6.03534 12.9018 6.08932 13.1447 6.18795C13.3876 6.28658 13.5761 6.42548 13.6868 6.58731C13.7974 6.74914 13.8252 6.92673 13.7668 7.09789C13.7083 7.26906 13.5662 7.42621 13.3581 7.54972C13.2195 7.63351 13.0543 7.70017 12.872 7.74585C12.6898 7.79153 12.4941 7.81533 12.2962 7.81588C12.0983 7.81642 11.9023 7.7937 11.7193 7.74902C11.5363 7.70435 11.3701 7.6386 11.2302 7.55559C11.0903 7.47257 10.9795 7.37393 10.9042 7.26536C10.8289 7.15678 10.7906 7.04044 10.7915 6.92303C10.7924 6.80563 10.8325 6.6895 10.9095 6.58134C10.9865 6.47319 11.0988 6.37516 11.24 6.29291C11.3817 6.20885 11.5504 6.14251 11.736 6.09783C11.9217 6.05314 12.1206 6.03101 12.3209 6.03275H12.321ZM17.9302 6.03346C17.9303 6.03346 17.9303 6.03346 17.9303 6.03346C18.3045 6.04319 18.659 6.13576 18.9238 6.29291C19.2027 6.45984 19.3587 6.68551 19.3578 6.92055C19.3569 7.15558 19.1992 7.38083 18.9191 7.54702C18.639 7.71321 18.2594 7.80679 17.8633 7.8073C17.4672 7.8078 17.0869 7.71519 16.8056 7.54972C16.5922 7.42308 16.4482 7.26114 16.3926 7.08513C16.337 6.90912 16.3723 6.72724 16.4939 6.56334C16.6155 6.39943 16.8177 6.26114 17.074 6.16659C17.3303 6.07204 17.6287 6.02563 17.9302 6.03346ZM3.83585 8.19936C3.56618 8.1921 3.38285 8.40261 3.38285 8.77499V16.167C3.38285 16.6851 3.73769 17.2996 4.18629 17.5587L11.0736 21.536C11.5222 21.795 11.8771 21.5901 11.8771 21.0721V13.68C11.8771 13.1619 11.5222 12.5475 11.0736 12.2884L4.18629 8.31116C4.06019 8.23827 3.94137 8.20208 3.83585 8.19927V8.19936ZM20.7471 8.19946C20.6416 8.20227 20.5229 8.23836 20.3967 8.31125L13.5092 12.2885C13.0606 12.5475 12.7057 13.1621 12.7057 13.6802V21.0724C12.7057 21.5903 13.0606 21.7951 13.5092 21.536L20.3968 17.5589C20.8454 17.2998 21.2001 16.6853 21.2001 16.1673V8.77508C21.2001 8.4028 21.0168 8.19233 20.7471 8.19955V8.19946ZM4.47462 9.22733C4.63506 9.2162 4.8173 9.26655 5.00294 9.37329C5.18858 9.48003 5.37103 9.63938 5.53186 9.83523C5.69269 10.0311 5.8262 10.2565 5.91891 10.4887C6.01161 10.721 6.06023 10.9517 6.05983 11.1578C6.06 11.3119 6.03284 11.4487 5.97991 11.5605C5.92697 11.6723 5.84931 11.7568 5.75136 11.8092C5.6534 11.8616 5.53708 11.8809 5.40903 11.866C5.28099 11.851 5.14374 11.8022 5.00513 11.7221C4.86652 11.6421 4.72927 11.5325 4.60123 11.3996C4.47319 11.2667 4.35687 11.1131 4.25892 10.9476C4.16096 10.7821 4.08331 10.6079 4.03038 10.435C3.97745 10.2621 3.95029 10.0939 3.95046 9.93997C3.95008 9.73433 3.9983 9.56024 4.0903 9.43516C4.18229 9.31009 4.31483 9.23842 4.47462 9.22733ZM20.1084 9.22733C20.2682 9.23841 20.4007 9.31007 20.4927 9.43515C20.5847 9.56023 20.633 9.73432 20.6326 9.93997C20.6322 10.2507 20.521 10.6127 20.3232 10.9463C20.1255 11.2799 19.8574 11.558 19.5779 11.7193C19.2984 11.8807 19.0303 11.9122 18.8326 11.8069C18.6348 11.7016 18.5235 11.4681 18.5232 11.1578C18.5228 10.9517 18.5714 10.721 18.6641 10.4887C18.7568 10.2565 18.8903 10.0311 19.0512 9.83523C19.212 9.63938 19.3945 9.48003 19.5801 9.37329C19.7657 9.26655 19.948 9.2162 20.1084 9.22733H20.1084ZM12.3647 9.3358C12.7389 9.34554 13.0933 9.43811 13.3582 9.59525C13.6348 9.76245 13.7889 9.98768 13.7871 10.222C13.7852 10.4563 13.6276 10.6806 13.3484 10.8463C13.0692 11.012 12.691 11.1055 12.2962 11.1066C11.9014 11.1077 11.5218 11.0162 11.24 10.8521C11.0266 10.7254 10.8827 10.5635 10.8271 10.3875C10.7714 10.2115 10.8067 10.0296 10.9283 9.86566C11.0499 9.70174 11.252 9.56345 11.5084 9.46889C11.7647 9.37433 12.0631 9.32793 12.3647 9.33575L12.3647 9.3358ZM17.4834 10.7429C17.6432 10.754 17.7757 10.8256 17.8677 10.9507C17.9597 11.0758 18.008 11.2499 18.0076 11.4555C18.0072 11.7663 17.896 12.1282 17.6982 12.4619C17.5005 12.7955 17.2324 13.0735 16.9529 13.2349C16.6734 13.3963 16.4053 13.4278 16.2076 13.3225C16.0098 13.2172 15.8985 12.9837 15.8982 12.6733C15.8978 12.4673 15.9464 12.2365 16.0391 12.0043C16.1318 11.7721 16.2653 11.5467 16.4262 11.3508C16.587 11.1549 16.7695 10.9956 16.9551 10.8889C17.1407 10.7821 17.323 10.7318 17.4834 10.7429H17.4834ZM9.72462 12.2585C9.88506 12.2473 10.0673 12.2977 10.2529 12.4044C10.4386 12.5112 10.621 12.6705 10.7818 12.8664C10.9427 13.0622 11.0762 13.2877 11.1689 13.5199C11.2616 13.7521 11.3102 13.9829 11.3098 14.1889C11.31 14.343 11.2828 14.4799 11.2299 14.5916C11.1769 14.7034 11.0993 14.7879 11.0013 14.8404C10.9034 14.8928 10.787 14.9121 10.659 14.8971C10.5309 14.8822 10.3937 14.8333 10.2551 14.7533C10.1165 14.6732 9.97923 14.5636 9.85118 14.4307C9.72314 14.2978 9.60682 14.1442 9.50887 13.9787C9.41092 13.8132 9.33326 13.639 9.28033 13.4661C9.2274 13.2932 9.20025 13.125 9.20041 12.9711C9.20003 12.7655 9.24825 12.5914 9.34025 12.4663C9.43224 12.3412 9.56483 12.2695 9.72462 12.2585ZM14.8584 12.2585C15.0182 12.2695 15.1507 12.3412 15.2427 12.4663C15.3347 12.5914 15.383 12.7654 15.3826 12.9711C15.3822 13.2818 15.271 13.6438 15.0732 13.9774C14.8755 14.3111 14.6074 14.5891 14.3279 14.7505C14.0484 14.9118 13.7803 14.9433 13.5826 14.838C13.3848 14.7327 13.2735 14.4993 13.2732 14.1889C13.2728 13.9829 13.3214 13.7521 13.4141 13.5199C13.5068 13.2876 13.6403 13.0622 13.8012 12.8664C13.962 12.6705 14.1445 12.5112 14.3301 12.4044C14.5157 12.2977 14.698 12.2473 14.8584 12.2585H14.8584ZM4.47466 14.9794C4.63511 14.9682 4.81735 15.0186 5.00299 15.1254C5.18863 15.2321 5.37107 15.3915 5.5319 15.5873C5.69272 15.7832 5.82623 16.0086 5.91893 16.2408C6.01163 16.473 6.06023 16.7038 6.05983 16.9099C6.06 17.064 6.03284 17.2008 5.97991 17.3126C5.92697 17.4244 5.84931 17.5089 5.75136 17.5613C5.6534 17.6137 5.53708 17.633 5.40903 17.6181C5.28099 17.6031 5.14374 17.5542 5.00513 17.4742C4.86652 17.3942 4.72927 17.2846 4.60123 17.1517C4.47319 17.0188 4.35687 16.8652 4.25892 16.6997C4.16096 16.5342 4.08331 16.36 4.03038 16.1871C3.97745 16.0142 3.95029 15.846 3.95046 15.6921C3.95007 15.4864 3.99829 15.3123 4.09029 15.1872C4.18228 15.0621 4.31487 14.9904 4.47466 14.9794ZM20.1084 14.9794C20.2682 14.9904 20.4007 15.0621 20.4927 15.1872C20.5847 15.3123 20.633 15.4864 20.6326 15.6921C20.6322 16.0028 20.521 16.3647 20.3232 16.6984C20.1255 17.032 19.8574 17.3101 19.5779 17.4714C19.2984 17.6328 19.0303 17.6643 18.8326 17.559C18.6348 17.4537 18.5235 17.2202 18.5232 16.9099C18.5228 16.7038 18.5714 16.473 18.6641 16.2408C18.7568 16.0086 18.8903 15.7832 19.0512 15.5873C19.212 15.3914 19.3944 15.2321 19.5801 15.1253C19.7657 15.0186 19.948 14.9682 20.1084 14.9794ZM17.4834 16.4949C17.6432 16.506 17.7758 16.5777 17.8678 16.7028C17.9598 16.8279 18.008 17.002 18.0076 17.2077C18.0072 17.5184 17.896 17.8804 17.6982 18.214C17.5005 18.5476 17.2324 18.8257 16.9529 18.987C16.6734 19.1484 16.4053 19.1799 16.2076 19.0746C16.0098 18.9693 15.8985 18.7358 15.8982 18.4255C15.8978 18.2194 15.9464 17.9886 16.0391 17.7564C16.1318 17.5242 16.2653 17.2988 16.4262 17.1029C16.587 16.9071 16.7695 16.7477 16.9551 16.641C17.1407 16.5342 17.323 16.4839 17.4834 16.495V16.4949ZM9.72466 18.0104C9.88511 17.9993 10.0674 18.0496 10.253 18.1564C10.4386 18.2631 10.6211 18.4225 10.7819 18.6183C10.9427 18.8142 11.0762 19.0396 11.1689 19.2719C11.2616 19.5041 11.3102 19.7349 11.3098 19.9409C11.31 20.095 11.2828 20.2319 11.2299 20.3436C11.177 20.4554 11.0993 20.5399 11.0014 20.5923C10.9034 20.6448 10.7871 20.664 10.659 20.6491C10.531 20.6341 10.3937 20.5853 10.2551 20.5052C10.1165 20.4252 9.97927 20.3156 9.85123 20.1827C9.72319 20.0498 9.60687 19.8962 9.50892 19.7307C9.41096 19.5652 9.3333 19.391 9.28038 19.2181C9.22745 19.0452 9.20029 18.877 9.20046 18.7231C9.20008 18.5174 9.2483 18.3434 9.3403 18.2183C9.43229 18.0932 9.56483 18.0215 9.72462 18.0104L9.72466 18.0104ZM14.8584 18.0104C15.0182 18.0215 15.1508 18.0932 15.2428 18.2183C15.3347 18.3434 15.383 18.5175 15.3826 18.7231C15.3822 19.0339 15.271 19.3958 15.0732 19.7295C14.8755 20.0631 14.6074 20.3411 14.3279 20.5025C14.0484 20.6639 13.7803 20.6954 13.5826 20.5901C13.3848 20.4848 13.2735 20.2513 13.2732 19.9409C13.2728 19.7349 13.3214 19.5041 13.4141 19.2719C13.5068 19.0397 13.6403 18.8142 13.8012 18.6184C13.962 18.4225 14.1445 18.2632 14.3301 18.1564C14.5157 18.0497 14.698 17.9994 14.8584 18.0105V18.0104Z" fill="white"/>
</svg>
