<svg width="24" height="24" viewBox="0 0 24 24" fill="none" xmlns="http://www.w3.org/2000/svg">
<path d="M11.9566 1.06592V1.06676C10.6875 1.06676 9.52477 1.71893 8.65088 2.83601C7.77778 3.95309 7.21669 5.53085 7.21669 7.28042C7.21669 9.09528 7.83797 10.7219 8.77373 11.8485L9.37955 12.5815L8.44458 12.7577C5.78419 13.2595 4.52616 14.283 3.79575 15.999C3.11175 17.6111 2.96831 19.9474 2.95374 22.9344H5.91159V19.8899H6.8438V22.9344H17.1738V19.8899H18.1103V22.9344H21.0464C21.0455 19.9234 21.0138 17.5328 20.3908 15.8984C19.7283 14.1618 18.508 13.134 15.607 12.6769L14.6557 12.5273L15.2572 11.7755C16.1449 10.661 16.6941 9.05918 16.6941 7.28046C16.6941 5.5309 16.1355 3.95309 15.2599 2.83601C14.3859 1.71898 13.225 1.06592 11.9566 1.06592ZM10.825 4.68711C10.825 4.68711 10.7613 5.1192 10.623 5.27773C10.55 5.35118 10.4675 5.44053 10.3618 5.50845C10.251 5.57032 10.1238 5.6202 10.0001 5.67607C9.51539 5.91668 9.01008 6.12331 9.01008 6.12331L8.98603 6.08642C8.98603 6.08642 9.38822 5.43434 9.81103 5.09745C9.91416 5.00895 10.0138 4.9145 10.1152 4.84104C10.2217 4.77354 10.3386 4.73661 10.4357 4.70178C10.5607 4.67257 10.7711 4.6182 10.825 4.68711ZM13.5644 4.70178C13.6615 4.73656 13.7784 4.77354 13.8849 4.841C13.9863 4.9145 14.086 5.00895 14.1892 5.09745C14.612 5.43429 15.0141 6.08642 15.0141 6.08642L14.9901 6.12331C14.9901 6.12331 14.4848 5.91664 14.0001 5.67607C13.8764 5.6202 13.7492 5.57037 13.6384 5.50854C13.5327 5.44062 13.4501 5.35128 13.3771 5.27782C13.2388 5.11929 13.1752 4.6872 13.1752 4.6872C13.248 4.62462 13.4834 4.6804 13.5644 4.70178ZM10.3455 6.10479C10.8465 6.10479 11.2529 6.51129 11.2529 7.01229C11.2529 7.51325 10.8465 7.91965 10.3455 7.91965C9.84455 7.91965 9.438 7.51325 9.438 7.01229C9.438 6.51129 9.84455 6.10479 10.3455 6.10479ZM13.6547 6.10479C14.1556 6.10479 14.562 6.51129 14.562 7.01229C14.562 7.51325 14.1556 7.91979 13.6547 7.91979C13.1537 7.91979 12.7472 7.51325 12.7472 7.01229C12.7472 6.51129 13.1537 6.10479 13.6547 6.10479ZM11.6616 12.7347H12.3376V13.8094C14.0487 13.9714 15.402 15.3246 15.564 17.0356H16.6385V17.7093H15.564C15.4008 19.4203 14.0487 20.7737 12.3376 20.9357V22.0115H11.6616V20.9357C9.95058 20.7737 8.59856 19.4203 8.43534 17.7093H7.36069V17.0356H8.43534C8.59739 15.3246 9.95058 13.9714 11.6616 13.8094L11.6616 12.7347ZM11.6616 14.5424C10.355 14.6986 9.32466 15.7279 9.16847 17.0356H10.1114V17.7093H9.16847C9.32466 19.0171 10.355 20.0463 11.6616 20.2025V19.2607H12.3376V20.2025C13.6442 20.0463 14.6746 19.017 14.8308 17.7093H13.8879V17.0356H14.8308C14.6746 15.7278 13.6442 14.6986 12.3376 14.5424V15.4855H11.6616L11.6616 14.5424ZM11.6616 15.8887H12.3376V17.0356H13.375V17.7093H12.3375V18.6394H11.6616V17.7093H10.6243V17.0356H11.6616L11.6616 15.8887Z" fill="white"/>
</svg>
