<svg width="25" height="24" viewBox="0 0 25 24" fill="none" xmlns="http://www.w3.org/2000/svg">
<path d="M18.269 0.75C20.5035 2.25 21.2483 4.5 21.2483 6C21.2483 12 21.2483 18 19.7587 23.25L19.0138 18C16.7793 19.5 13.8 21 12.3104 21C10.8207 21 7.84142 19.5 5.60693 18L4.86211 23.25C3.37245 18 3.37245 12 3.37245 6C3.37245 4.5 4.11728 2.25 6.35176 0.75C5.60693 3 5.60693 5.25 6.35176 6.75C9.33107 5.25 15.2897 5.25 18.269 6.75C19.0138 5.25 19.0138 3 18.269 0.75ZM18.269 12.75C16.7002 14.9438 15.8483 15.4312 13.0552 16.5C14.6147 18 17.5009 17.5078 19.0138 15.75C19.6702 14.9859 19.3304 13.6594 18.269 12.75ZM6.35176 12.75C5.29038 13.6594 4.95056 14.9859 5.60693 15.75C7.11987 17.5078 10.0061 18 11.5656 16.5C8.77245 15.4312 7.92056 14.9438 6.35176 12.75Z" fill="white"/>
</svg>
