<svg width="35" height="32" viewBox="0 0 35 32" fill="none" xmlns="http://www.w3.org/2000/svg">
<path d="M34 7.85253C34.0006 8.17117 33.9243 8.48495 33.7781 8.76562C33.6319 9.04629 33.4203 9.28502 33.1623 9.46033C32.9044 9.63563 32.6082 9.74199 32.3005 9.76983C31.9928 9.79767 31.6833 9.74612 31.3997 9.61981L26.7599 21.1655H8.21885L3.58283 9.62519C3.16387 9.80658 2.69507 9.8237 2.26472 9.67333C1.83437 9.52295 1.47217 9.21545 1.24633 8.80873C1.02048 8.40202 0.946582 7.92416 1.03854 7.46514C1.1305 7.00613 1.38197 6.59764 1.7456 6.31659C2.10923 6.03555 2.55992 5.90135 3.0128 5.93927C3.46568 5.97718 3.88949 6.1846 4.20443 6.52246C4.51936 6.86031 4.70368 7.3053 4.72268 7.7736C4.74168 8.24191 4.59405 8.70122 4.30758 9.06504L10.7879 14.5359L12.3461 4.82358C11.9075 4.74327 11.5112 4.50338 11.2294 4.14746C10.9475 3.79154 10.7987 3.34317 10.81 2.88373C10.8212 2.42429 10.9917 1.98423 11.2906 1.64342C11.5895 1.30262 11.997 1.08365 12.439 1.02626C12.881 0.968875 13.3284 1.07687 13.6998 1.33065C14.0712 1.58444 14.3422 1.96718 14.4634 2.40942C14.5846 2.85166 14.5482 3.32409 14.3606 3.74095C14.173 4.15782 13.8468 4.4915 13.4411 4.68142L17.4864 13.6715L21.54 4.65837C21.1367 4.4622 20.8151 4.12331 20.6336 3.70328C20.452 3.28326 20.4225 2.80998 20.5505 2.36945C20.6785 1.92892 20.9555 1.55038 21.3311 1.30261C21.7066 1.05485 22.1559 0.954308 22.5973 1.01926C23.0386 1.08421 23.4427 1.31034 23.7362 1.65656C24.0296 2.00279 24.1929 2.44612 24.1964 2.90599C24.1999 3.36587 24.0433 3.81177 23.7551 4.16267C23.4669 4.51356 23.0663 4.74616 22.626 4.8182L24.185 14.5321L30.6846 9.05351C30.4985 8.81394 30.3708 8.53186 30.3122 8.2309C30.2536 7.92993 30.2657 7.61885 30.3476 7.32373C30.4295 7.0286 30.5788 6.75802 30.7829 6.53465C30.987 6.31128 31.2401 6.14164 31.5209 6.03993C31.8016 5.93822 32.102 5.9074 32.3967 5.95007C32.6914 5.99274 32.9719 6.10764 33.2146 6.28515C33.4574 6.46267 33.6554 6.69762 33.7921 6.97033C33.9287 7.24303 34 7.54555 34 7.85253ZM28.6623 26.3897H6.31647V31H28.6623V26.3897ZM26.5953 22.3941H8.40432V25.1603H26.5953V22.3941Z" fill="#72C778" stroke="black" stroke-opacity="0.75"/>
</svg>
