<svg width="24" height="24" viewBox="0 0 24 24" fill="none" xmlns="http://www.w3.org/2000/svg">
<path d="M11.9887 2.09814C11.6992 2.09814 11.4097 2.16302 11.1854 2.29277L4.02512 6.43464C3.57653 6.69414 3.57653 7.10449 4.02512 7.36399L11.1854 11.5059C11.634 11.7654 12.3434 11.7654 12.7919 11.5059L19.9522 7.36399C20.4008 7.10454 20.4008 6.69414 19.9522 6.43469L12.7919 2.29282C12.5676 2.16297 12.2782 2.09814 11.9887 2.09814ZM11.9501 4.58768C12.3726 4.59222 12.7524 4.68902 13.0896 4.87793C13.3202 5.00721 13.4713 5.15463 13.5427 5.32033C13.6118 5.48472 13.6158 5.70143 13.5549 5.97025L13.4799 6.23772C13.4302 6.42911 13.4199 6.56679 13.449 6.65069C13.4757 6.73338 13.5419 6.80435 13.6478 6.86369L13.8067 6.95266L12.2488 7.82547L12.0757 7.72858C11.8827 7.62049 11.7596 7.49833 11.7062 7.36202C11.6505 7.22444 11.6598 7.00563 11.734 6.70554L11.8055 6.4361C11.8471 6.27565 11.8511 6.14407 11.8177 6.0415C11.7871 5.93725 11.7176 5.8548 11.6094 5.79414C11.4446 5.7018 11.2472 5.66871 11.0173 5.69463C10.785 5.71929 10.5452 5.80094 10.2978 5.93955C10.0647 6.0701 9.85309 6.23355 9.66263 6.42986C9.46988 6.62496 9.30451 6.84818 9.16637 7.09961L8.05778 6.47843C8.30706 6.22811 8.55198 6.00921 8.79259 5.82157C9.03324 5.63407 9.28731 5.46532 9.55487 5.31532C10.2569 4.92204 10.9097 4.68813 11.5133 4.61374C11.6637 4.5948 11.8093 4.58608 11.9502 4.58763L11.9501 4.58768ZM14.3293 7.24549L15.5863 7.94974L14.0284 8.82255L12.7714 8.11835L14.3293 7.24549ZM3.54699 8.14858C3.27732 8.14132 3.09399 8.35183 3.09399 8.72421V16.1162C3.09399 16.6343 3.44884 17.2488 3.89743 17.5079L10.7848 21.4852C11.2334 21.7442 11.5882 21.5394 11.5882 21.0213V13.6292C11.5882 13.1111 11.2334 12.4967 10.7848 12.2376L3.89743 8.26038C3.77134 8.18749 3.65251 8.1513 3.54699 8.14849V8.14858ZM20.4582 8.14868C20.3528 8.15149 20.234 8.18758 20.1079 8.26047L13.2203 12.2377C12.7717 12.4968 12.4169 13.1113 12.4169 13.6294V21.0216C12.4169 21.5396 12.7717 21.7443 13.2203 21.4852L20.1079 17.5081C20.5565 17.249 20.9112 16.6346 20.9112 16.1165V8.7243C20.9112 8.35202 20.7279 8.14155 20.4582 8.14877V8.14868ZM5.38581 11.1371C5.69298 11.2011 5.97353 11.2795 6.2274 11.372C6.48123 11.4647 6.72629 11.5791 6.9624 11.7154C7.58176 12.0731 8.05393 12.4806 8.37887 12.938C8.70381 13.3927 8.86627 13.8776 8.86627 14.393C8.86627 14.6574 8.81682 14.8661 8.71777 15.0194C8.61877 15.17 8.44993 15.2965 8.21134 15.3988L7.96759 15.4888C7.79499 15.5564 7.68198 15.6261 7.62868 15.6979C7.57538 15.7669 7.54876 15.8621 7.54876 15.9835V16.1656L6.17415 15.3718V15.1736C6.17415 14.9523 6.21596 14.7809 6.29978 14.6593C6.38354 14.535 6.56003 14.4184 6.82909 14.3093L7.07284 14.2153C7.21754 14.1586 7.32287 14.0872 7.38887 14.0012C7.45731 13.9167 7.49162 13.8124 7.49162 13.6883C7.49162 13.4995 7.43068 13.3173 7.30881 13.1417C7.18693 12.9634 7.01692 12.8112 6.79857 12.6851C6.59293 12.5665 6.37079 12.4841 6.13215 12.438C5.89356 12.3893 5.64474 12.3792 5.38581 12.4078V11.1371ZM18.0205 11.5405C18.0918 11.5405 18.1579 11.5482 18.2189 11.5636C18.5438 11.6431 18.7063 11.9405 18.7063 12.4558C18.7063 12.7202 18.6568 12.9862 18.5578 13.2538C18.4588 13.5186 18.2899 13.8401 18.0513 14.2179L17.8076 14.5893C17.635 14.8563 17.522 15.0564 17.4687 15.1897C17.4154 15.3202 17.3888 15.4462 17.3888 15.5676V15.7497L16.0141 16.5434V16.3451C16.0141 16.1239 16.0561 15.9041 16.1398 15.6858C16.2237 15.4647 16.4 15.1443 16.6691 14.7246L16.9128 14.3492C17.0575 14.1253 17.1629 13.9323 17.2289 13.7701C17.2973 13.6064 17.3316 13.4625 17.3316 13.3383C17.3316 13.1495 17.2707 13.0377 17.1489 13.0028C17.027 12.9653 16.8569 13.0095 16.6386 13.1355C16.4329 13.2542 16.2109 13.4284 15.9722 13.6579C15.7337 13.8848 15.4848 14.1619 15.2259 14.4895V13.2187C15.5331 12.9281 15.8135 12.6824 16.0673 12.4819C16.3212 12.2814 16.5663 12.113 16.8023 11.9767C17.3057 11.6861 17.7117 11.5407 18.0206 11.5405L18.0205 11.5405ZM6.1741 15.9709L7.54876 16.7645V18.2052L6.17415 17.4116V15.9709L6.1741 15.9709ZM17.3888 16.3487V17.7894L16.0141 18.583V17.1424L17.3888 16.3487Z" fill="white"/>
</svg>
