<svg width="18" height="22" viewBox="0 0 18 22" fill="none" xmlns="http://www.w3.org/2000/svg">
<path d="M7.40171 0.316406C5.46609 0.623766 3.97685 1.40456 2.90309 2.48578C1.5509 3.84731 0.844104 5.70295 0.794434 7.76559H2.28102V11.6093H1.12611C1.47432 13.5489 2.09281 15.5079 2.97655 17.1765C4.4244 19.91 6.52304 21.8281 9.31033 21.8281C12.0976 21.8281 14.1963 19.91 15.6441 17.1765C16.5278 15.5079 17.1463 13.5489 17.4945 11.6093H16.3396V7.76559H17.8262C17.7766 5.703 17.0698 3.84731 15.7176 2.48573C14.6438 1.40456 13.1546 0.623766 11.2189 0.316406V2.42184H7.40171V0.316406ZM6.28447 1.99997C6.39558 1.99997 6.50215 2.04442 6.58072 2.12353C6.65929 2.20265 6.70343 2.30996 6.70343 2.42184C6.70343 2.53373 6.65929 2.64104 6.58072 2.72015C6.50215 2.79927 6.39558 2.84372 6.28447 2.84372C6.17335 2.84372 6.06678 2.79927 5.98821 2.72015C5.90964 2.64104 5.8655 2.53373 5.8655 2.42184C5.8655 2.30996 5.90964 2.20265 5.98821 2.12353C6.06678 2.04442 6.17335 1.99997 6.28447 1.99997ZM12.3362 1.99997C12.4473 1.99997 12.5539 2.04442 12.6324 2.12353C12.711 2.20265 12.7552 2.30996 12.7552 2.42184C12.7552 2.53373 12.711 2.64104 12.6324 2.72015C12.5539 2.79927 12.4473 2.84372 12.3362 2.84372C12.2251 2.84372 12.1185 2.79927 12.0399 2.72015C11.9614 2.64104 11.9172 2.53373 11.9172 2.42184C11.9172 2.30996 11.9614 2.20265 12.0399 2.12353C12.1185 2.04442 12.2251 1.99997 12.3362 1.99997ZM6.09826 3.49997C6.20937 3.49997 6.31594 3.54442 6.39451 3.62353C6.47308 3.70265 6.51722 3.80996 6.51722 3.92184C6.51722 4.03373 6.47308 4.14104 6.39451 4.22015C6.31594 4.29927 6.20937 4.34372 6.09826 4.34372C5.98714 4.34372 5.88058 4.29927 5.802 4.22015C5.72343 4.14104 5.67929 4.03373 5.67929 3.92184C5.67929 3.80996 5.72343 3.70265 5.802 3.62353C5.88058 3.54442 5.98714 3.49997 6.09826 3.49997ZM12.5224 3.49997C12.6335 3.49997 12.7401 3.54442 12.8187 3.62353C12.8972 3.70265 12.9414 3.80996 12.9414 3.92184C12.9414 4.03373 12.8972 4.14104 12.8187 4.22015C12.7401 4.29927 12.6335 4.34372 12.5224 4.34372C12.4113 4.34372 12.3047 4.29927 12.2261 4.22015C12.1476 4.14104 12.1034 4.03373 12.1034 3.92184C12.1034 3.80996 12.1476 3.70265 12.2261 3.62353C12.3047 3.54442 12.4113 3.49997 12.5224 3.49997ZM5.91205 5.32809C6.02317 5.32809 6.12973 5.37254 6.20831 5.45166C6.28688 5.53077 6.33102 5.63808 6.33102 5.74997C6.33102 5.86186 6.28688 5.96916 6.20831 6.04828C6.12973 6.1274 6.02317 6.17184 5.91205 6.17184C5.80093 6.17184 5.69437 6.1274 5.6158 6.04828C5.53723 5.96916 5.49309 5.86186 5.49309 5.74997C5.49309 5.63808 5.53723 5.53077 5.6158 5.45166C5.69437 5.37254 5.80093 5.32809 5.91205 5.32809ZM8.14653 5.32809C8.25765 5.32809 8.36422 5.37254 8.44279 5.45166C8.52136 5.53077 8.5655 5.63808 8.5655 5.74997C8.5655 5.86186 8.52136 5.96916 8.44279 6.04828C8.36422 6.1274 8.25765 6.17184 8.14653 6.17184C8.03542 6.17184 7.92885 6.1274 7.85028 6.04828C7.77171 5.96916 7.72757 5.86186 7.72757 5.74997C7.72757 5.63808 7.77171 5.53077 7.85028 5.45166C7.92885 5.37254 8.03542 5.32809 8.14653 5.32809ZM10.4741 5.32809C10.5852 5.32809 10.6918 5.37254 10.7704 5.45166C10.8489 5.53077 10.8931 5.63808 10.8931 5.74997C10.8931 5.86186 10.8489 5.96916 10.7704 6.04828C10.6918 6.1274 10.5852 6.17184 10.4741 6.17184C10.363 6.17184 10.2564 6.1274 10.1779 6.04828C10.0993 5.96916 10.0552 5.86186 10.0552 5.74997C10.0552 5.63808 10.0993 5.53077 10.1779 5.45166C10.2564 5.37254 10.363 5.32809 10.4741 5.32809ZM12.7086 5.32809C12.8197 5.32809 12.9263 5.37254 13.0049 5.45166C13.0834 5.53077 13.1276 5.63808 13.1276 5.74997C13.1276 5.86186 13.0834 5.96916 13.0049 6.04828C12.9263 6.1274 12.8197 6.17184 12.7086 6.17184C12.5975 6.17184 12.4909 6.1274 12.4124 6.04828C12.3338 5.96916 12.2896 5.86186 12.2896 5.74997C12.2896 5.63808 12.3338 5.53077 12.4124 5.45166C12.4909 5.37254 12.5975 5.32809 12.7086 5.32809ZM6.33102 6.68747H12.2896L9.31033 7.99997L6.33102 6.68747ZM5.58619 7.57809C6.79574 7.57809 7.86722 8.38655 7.86722 9.49997C7.86722 10.6134 6.79574 11.4218 5.58619 11.4218C4.37664 11.4218 3.30515 10.6134 3.30515 9.49997C3.30515 8.38655 4.37664 7.57809 5.58619 7.57809ZM13.0345 7.57809C14.244 7.57809 15.3155 8.38655 15.3155 9.49997C15.3155 10.6134 14.244 11.4218 13.0345 11.4218C11.8249 11.4218 10.7534 10.6134 10.7534 9.49997C10.7534 8.38655 11.8249 7.57809 13.0345 7.57809ZM7.07584 13.25L4.84136 15.5H3.91033L7.07584 13.25ZM7.82067 13.25H10.8C10.8 13.25 10.0126 14.75 9.31033 14.75C8.60809 14.75 7.82067 13.25 7.82067 13.25ZM11.5448 13.25L14.7103 15.5H13.7793L11.5448 13.25ZM7.82067 16.25C7.93179 16.25 8.03836 16.2944 8.11693 16.3735C8.1955 16.4527 8.23964 16.56 8.23964 16.6718C8.23964 16.7837 8.1955 16.891 8.11693 16.9702C8.03836 17.0493 7.93179 17.0937 7.82067 17.0937C7.70956 17.0937 7.60299 17.0493 7.52442 16.9702C7.44585 16.891 7.40171 16.7837 7.40171 16.6718C7.40171 16.56 7.44585 16.4527 7.52442 16.3735C7.60299 16.2944 7.70956 16.25 7.82067 16.25ZM10.8 16.25C10.9111 16.25 11.0177 16.2944 11.0962 16.3735C11.1748 16.4527 11.2189 16.56 11.2189 16.6718C11.2189 16.7837 11.1748 16.891 11.0962 16.9702C11.0177 17.0493 10.9111 17.0937 10.8 17.0937C10.6889 17.0937 10.5823 17.0493 10.5037 16.9702C10.4252 16.891 10.381 16.7837 10.381 16.6718C10.381 16.56 10.4252 16.4527 10.5037 16.3735C10.5823 16.2944 10.6889 16.25 10.8 16.25ZM6.33102 17C6.44213 17 6.5487 17.0444 6.62727 17.1235C6.70584 17.2027 6.74998 17.31 6.74998 17.4218C6.74998 17.5337 6.70584 17.641 6.62727 17.7202C6.5487 17.7993 6.44213 17.8437 6.33102 17.8437C6.2199 17.8437 6.11333 17.7993 6.03476 17.7202C5.95619 17.641 5.91205 17.5337 5.91205 17.4218C5.91205 17.31 5.95619 17.2027 6.03476 17.1235C6.11333 17.0444 6.2199 17 6.33102 17ZM12.2896 17C12.4008 17 12.5073 17.0444 12.5859 17.1235C12.6645 17.2027 12.7086 17.31 12.7086 17.4218C12.7086 17.5337 12.6645 17.641 12.5859 17.7202C12.5073 17.7993 12.4008 17.8437 12.2896 17.8437C12.1785 17.8437 12.072 17.7993 11.9934 17.7202C11.9148 17.641 11.8707 17.5337 11.8707 17.4218C11.8707 17.31 11.9148 17.2027 11.9934 17.1235C12.072 17.0444 12.1785 17 12.2896 17ZM7.82067 17.75C7.93179 17.75 8.03836 17.7944 8.11693 17.8735C8.1955 17.9527 8.23964 18.06 8.23964 18.1718C8.23964 18.2837 8.1955 18.391 8.11693 18.4702C8.03836 18.5493 7.93179 18.5937 7.82067 18.5937C7.70956 18.5937 7.60299 18.5493 7.52442 18.4702C7.44585 18.391 7.40171 18.2837 7.40171 18.1718C7.40171 18.06 7.44585 17.9527 7.52442 17.8735C7.60299 17.7944 7.70956 17.75 7.82067 17.75ZM10.8 17.75C10.9111 17.75 11.0177 17.7944 11.0962 17.8735C11.1748 17.9527 11.2189 18.06 11.2189 18.1718C11.2189 18.2837 11.1748 18.391 11.0962 18.4702C11.0177 18.5493 10.9111 18.5937 10.8 18.5937C10.6889 18.5937 10.5823 18.5493 10.5037 18.4702C10.4252 18.391 10.381 18.2837 10.381 18.1718C10.381 18.06 10.4252 17.9527 10.5037 17.8735C10.5823 17.7944 10.6889 17.75 10.8 17.75ZM5.26033 18.0781C5.37144 18.0781 5.47801 18.1225 5.55658 18.2017C5.63515 18.2808 5.67929 18.3881 5.67929 18.5C5.67929 18.6119 5.63515 18.7192 5.55658 18.7983C5.47801 18.8774 5.37144 18.9218 5.26033 18.9218C5.14921 18.9218 5.04264 18.8774 4.96407 18.7983C4.8855 18.7192 4.84136 18.6119 4.84136 18.5C4.84136 18.3881 4.8855 18.2808 4.96407 18.2017C5.04264 18.1225 5.14921 18.0781 5.26033 18.0781ZM13.3603 18.0781C13.4714 18.0781 13.578 18.1225 13.6566 18.2017C13.7352 18.2808 13.7793 18.3881 13.7793 18.5C13.7793 18.6119 13.7352 18.7192 13.6566 18.7983C13.578 18.8774 13.4714 18.9218 13.3603 18.9218C13.2492 18.9218 13.1426 18.8774 13.0641 18.7983C12.9855 18.7192 12.9414 18.6119 12.9414 18.5C12.9414 18.3881 12.9855 18.2808 13.0641 18.2017C13.1426 18.1225 13.2492 18.0781 13.3603 18.0781ZM7.82067 19.25C7.93179 19.25 8.03836 19.2944 8.11693 19.3735C8.1955 19.4527 8.23964 19.56 8.23964 19.6718C8.23964 19.7837 8.1955 19.891 8.11693 19.9702C8.03836 20.0493 7.93179 20.0937 7.82067 20.0937C7.70956 20.0937 7.60299 20.0493 7.52442 19.9702C7.44585 19.891 7.40171 19.7837 7.40171 19.6718C7.40171 19.56 7.44585 19.4527 7.52442 19.3735C7.60299 19.2944 7.70956 19.25 7.82067 19.25ZM10.8 19.25C10.9111 19.25 11.0177 19.2944 11.0962 19.3735C11.1748 19.4527 11.2189 19.56 11.2189 19.6718C11.2189 19.7837 11.1748 19.891 11.0962 19.9702C11.0177 20.0493 10.9111 20.0937 10.8 20.0937C10.6889 20.0937 10.5823 20.0493 10.5037 19.9702C10.4252 19.891 10.381 19.7837 10.381 19.6718C10.381 19.56 10.4252 19.4527 10.5037 19.3735C10.5823 19.2944 10.6889 19.25 10.8 19.25Z" fill="white"/>
</svg>
