<svg width="30" height="30" viewBox="0 0 30 30" fill="none" xmlns="http://www.w3.org/2000/svg">
<path d="M1.46196 3.69385L1.21127 4.71707L1.71277 4.8448L5.1953 5.73309L6.8843 8.31707L10.4712 19.2929L8.3546 23.6108H9.37867C9.25884 23.8591 9.19117 24.1376 9.19117 24.4311C9.19117 25.4604 10.0203 26.3061 11.0294 26.3061C12.0385 26.3061 12.8676 25.4604 12.8676 24.4311C12.8676 24.1376 12.8 23.8591 12.6801 23.6108H18.5698C18.45 23.8591 18.3823 24.1376 18.3823 24.4311C18.3823 25.4604 19.2114 26.3061 20.2206 26.3061C21.2297 26.3061 22.0588 25.4604 22.0588 24.4311C22.0588 24.1376 21.9911 23.8591 21.8713 23.6108H22.5758V22.5561H10.0277L11.3489 19.8608H22.4314L26.4525 7.55611H7.62959L5.83409 4.80871L1.96363 3.82182L1.46196 3.69385ZM8.0703 8.61068H13.2698V11.306H8.95116L8.0703 8.61068ZM14.3038 8.61068H18.7845V11.306H14.3038V8.61068ZM19.8185 8.61068H25.0179L24.1371 11.306H19.8185V8.61068ZM9.29572 12.3607H13.2698V15.056H10.1766L9.29572 12.3607ZM14.3038 12.3607H18.7845V15.056H14.3038V12.3607ZM19.8185 12.3607H23.7925L22.9116 15.056H19.8185V12.3607ZM10.5212 16.1107H13.2698V18.806H11.402L10.5212 16.1107ZM14.3038 16.1107H18.7845V18.806H14.3038V16.1107ZM19.8185 16.1107H22.567L21.6862 18.806H19.8185V16.1107ZM11.0294 23.6107C11.4798 23.6107 11.8336 23.9716 11.8336 24.431C11.8336 24.8904 11.4798 25.2513 11.0294 25.2513C10.579 25.2513 10.2252 24.8904 10.2252 24.431C10.2252 23.9716 10.579 23.6107 11.0294 23.6107ZM20.2206 23.6107C20.6709 23.6107 21.0248 23.9716 21.0248 24.431C21.0248 24.8904 20.6709 25.2513 20.2206 25.2513C19.7702 25.2513 19.4163 24.8904 19.4163 24.431C19.4163 23.9716 19.7702 23.6107 20.2206 23.6107Z" fill="white"/>
</svg>
