<svg width="24" height="24" viewBox="0 0 24 24" fill="none" xmlns="http://www.w3.org/2000/svg">
<path d="M5.59861 1.6875C4.8427 1.6875 4.22986 2.49548 4.22986 3.49219V20.5078C4.22986 21.5045 4.8427 22.3125 5.59861 22.3125H18.5032C19.2591 22.3125 19.8719 21.5045 19.8719 20.5078V3.49219C19.8719 2.49548 19.2591 1.6875 18.5032 1.6875H5.59861ZM8.28051 2.44566H8.28061C8.91867 2.43075 9.52289 2.90761 9.54966 3.76017C9.59541 5.21752 7.31194 6.24197 7.09762 7.04212C6.86334 6.16795 4.68759 5.28089 4.63903 3.76017C4.59239 2.29978 6.3922 1.98314 7.09762 3.2048C7.39106 2.69639 7.84397 2.45587 8.28051 2.44566ZM11.3822 7.73456H11.7555L14.7143 15.2737C14.8332 15.5783 15.0765 15.7306 15.4443 15.7306H15.7006V16.1485H12.4131V15.7306H12.675C13.0167 15.7306 13.2582 15.6935 13.3994 15.6192C13.4959 15.5671 13.5442 15.4872 13.5442 15.3795C13.5442 15.3164 13.5312 15.2495 13.5052 15.1789L12.8198 13.4293H9.56564L9.18126 14.4323C9.08095 14.6998 9.0308 14.9115 9.0308 15.0675C9.0308 15.2495 9.11433 15.4056 9.28148 15.5356C9.45234 15.6656 9.69942 15.7306 10.0226 15.7306H10.3012V16.1485H7.31456V15.7306C7.63401 15.7306 7.88662 15.6619 8.07234 15.5244C8.25806 15.3833 8.42906 15.1177 8.58501 14.7276L11.3822 7.73456ZM11.2207 9.32264L9.744 12.9946H12.6582L11.2207 9.32264ZM16.9093 16.958C17.1236 17.7581 19.4072 18.7825 19.3614 20.2398C19.3347 21.0924 18.7303 21.5693 18.0923 21.5543H18.0922C17.6557 21.5441 17.2028 21.3036 16.9093 20.7952C16.2039 22.0168 14.4041 21.7003 14.4507 20.2398C14.4993 18.7191 16.675 17.8321 16.9093 16.958Z" fill="white"/>
</svg>
