<svg width="24" height="24" viewBox="0 0 24 24" fill="none" xmlns="http://www.w3.org/2000/svg">
<path d="M18.8486 1.08898C18.5142 1.08992 18.1624 1.10337 17.7969 1.12986C19.6777 2.48426 21.5155 4.32204 22.87 6.20286C22.9317 5.34982 22.9213 4.57221 22.8537 3.91011C22.7413 2.80873 22.4275 2.02418 22.2017 1.79839C21.9758 1.57245 21.1913 1.25871 20.09 1.14636C19.8146 1.11823 19.5194 1.09995 19.2071 1.09259C19.09 1.08978 18.9704 1.08861 18.8486 1.08898ZM14.5113 1.68101C11.7635 2.3989 8.76665 3.83051 6.29943 6.29726C3.84088 8.77517 2.41832 11.7879 1.7062 14.5465C3.31091 16.7838 7.26932 20.7389 9.48857 22.3191C12.2369 21.6011 15.2341 20.1692 17.7015 17.7018C20.169 15.2343 21.6009 12.237 22.3189 9.48879C20.7305 7.25801 16.7419 3.26942 14.5111 1.68101H14.5113ZM14.0613 2.62273L14.4386 3.37742C13.8801 3.6567 13.3553 3.92843 12.8604 4.19632L13.1389 4.77017L12.3797 5.13846L12.122 4.60737C11.4892 4.96812 10.9061 5.32596 10.3666 5.69004L10.6819 6.16325L9.97968 6.63106L9.67673 6.17628C9.10532 6.59754 8.58173 7.03268 8.09254 7.496L8.54831 7.95176L7.95177 8.54829L7.49601 8.09257C7.03382 8.58073 6.59952 9.10282 6.1792 9.67273L6.65685 9.98107L6.19916 10.6898L5.69268 10.3628C5.3376 10.8886 4.98862 11.4559 4.63706 12.0702L5.2589 12.3587L4.90391 13.1241L4.2247 12.809C3.94748 13.3193 3.66651 13.8604 3.37738 14.4387L2.6227 14.0614C2.90605 13.4946 3.18379 12.9601 3.45956 12.4542L2.97955 12.2315L3.33459 11.4661L3.87346 11.716C4.2449 11.0692 4.61596 10.4697 4.99518 9.91254L4.41702 9.53918L4.87462 8.83043L5.4838 9.22371C5.93971 8.60731 6.41216 8.04139 6.91551 7.51212L6.45177 7.04829L7.04831 6.45176L7.51213 6.91554C8.03985 6.41375 8.60399 5.94256 9.2182 5.48792L8.80354 4.8657L9.50573 4.39789L9.90641 4.99929C10.4765 4.61103 11.0909 4.23139 11.755 3.85104L11.4536 3.22995L12.2127 2.86165L12.4927 3.43878C12.9873 3.16986 13.5087 2.89892 14.0612 2.62268L14.0613 2.62273ZM1.16057 17.8399C1.10081 18.6769 1.10962 19.4402 1.17276 20.0921C1.27949 21.1925 1.58516 21.9793 1.80173 22.2045C2.03104 22.4302 2.81291 22.7419 3.90998 22.8538C4.57209 22.9213 5.34965 22.9318 6.20273 22.8702C4.33616 21.526 2.51198 19.7059 1.16057 17.84V17.8399Z" fill="white"/>
</svg>
