<svg width="16" height="5" viewBox="0 0 16 5" fill="none" xmlns="http://www.w3.org/2000/svg">
<path d="M0.618991 0.398473C0.830465 0.304031 1.11725 0.250977 1.41627 0.250977C1.71529 0.250977 2.00207 0.304031 2.21355 0.398473L7.79563 2.89213L13.3777 0.398473C13.5904 0.306708 13.8752 0.25593 14.1709 0.257078C14.4666 0.258226 14.7494 0.311207 14.9585 0.40461C15.1676 0.498013 15.2862 0.624364 15.2888 0.756451C15.2913 0.888537 15.1777 1.01579 14.9723 1.1108L8.5929 3.96062C8.38143 4.05506 8.09465 4.10812 7.79563 4.10812C7.4966 4.10812 7.20982 4.05506 6.99835 3.96062L0.618991 1.1108C0.407582 1.01633 0.288818 0.888219 0.288818 0.754638C0.288818 0.621056 0.407582 0.492944 0.618991 0.398473Z" fill="white"/>
</svg>
