<svg width="34" height="34" viewBox="0 0 34 34" fill="grenn" xmlns="http://www.w3.org/2000/svg">
<path d="M17 16.9998C15.4417 16.9998 14.1076 16.445 12.9979 15.3353C11.8882 14.2255 11.3333 12.8915 11.3333 11.3332C11.3333 9.77484 11.8882 8.44081 12.9979 7.33109C14.1076 6.22137 15.4417 5.6665 17 5.6665C18.5583 5.6665 19.8924 6.22137 21.0021 7.33109C22.1118 8.44081 22.6667 9.77484 22.6667 11.3332C22.6667 12.8915 22.1118 14.2255 21.0021 15.3353C19.8924 16.445 18.5583 16.9998 17 16.9998ZM5.66666 28.3332V24.3665C5.66666 23.5637 5.87325 22.8259 6.28645 22.153C6.69964 21.48 7.2486 20.9665 7.93332 20.6123C9.39721 19.8804 10.8847 19.3314 12.3958 18.9655C13.9069 18.5995 15.4417 18.4165 17 18.4165C18.5583 18.4165 20.093 18.5995 21.6042 18.9655C23.1153 19.3314 24.6028 19.8804 26.0667 20.6123C26.7514 20.9665 27.3003 21.48 27.7135 22.153C28.1267 22.8259 28.3333 23.5637 28.3333 24.3665V28.3332H5.66666ZM8.49999 25.4998H25.5V24.3665C25.5 24.1068 25.4351 23.8707 25.3052 23.6582C25.1753 23.4457 25.0042 23.2804 24.7917 23.1623C23.5167 22.5248 22.2299 22.0467 20.9312 21.728C19.6326 21.4092 18.3222 21.2498 17 21.2498C15.6778 21.2498 14.3674 21.4092 13.0687 21.728C11.7701 22.0467 10.4833 22.5248 9.20832 23.1623C8.99582 23.2804 8.82464 23.4457 8.69478 23.6582C8.56492 23.8707 8.49999 24.1068 8.49999 24.3665V25.4998ZM17 14.1665C17.7792 14.1665 18.4462 13.8891 19.001 13.3342C19.5559 12.7794 19.8333 12.1123 19.8333 11.3332C19.8333 10.554 19.5559 9.88699 19.001 9.33213C18.4462 8.77727 17.7792 8.49984 17 8.49984C16.2208 8.49984 15.5538 8.77727 14.9989 9.33213C14.4441 9.88699 14.1667 10.554 14.1667 11.3332C14.1667 12.1123 14.4441 12.7794 14.9989 13.3342C15.5538 13.8891 16.2208 14.1665 17 14.1665Z" fill="white"/>
</svg>
