<svg width="24" height="24" viewBox="0 0 24 24" fill="none" xmlns="http://www.w3.org/2000/svg">
<path d="M12.8519 1.95013C12.7208 1.94966 12.5906 1.95275 12.4614 1.95927C7.92997 2.18661 4.14669 6.03411 2.25003 10.9593C0.353373 15.884 2.29287 22.2079 6.48453 22.0911C10.6761 21.974 7.3325 17.4224 9.55419 15.2418C10.6954 14.1215 12.3129 14.5161 13.9701 14.9774L13.1451 13.9002L12.9483 13.6433C12.8836 13.6461 12.8175 13.6481 12.7486 13.6476C12.3623 13.6446 11.9133 13.6222 11.565 13.3032C10.9139 12.7064 10.89 11.8358 10.905 11.0575C10.92 10.2791 10.9575 9.53989 10.7151 9.06121L10.448 8.53433L11.0383 8.51699C11.0874 8.51558 11.1366 8.51464 11.186 8.5145C11.9266 8.51108 12.7002 8.64463 13.3851 8.93779C14.1156 9.25044 14.7564 9.75529 15.0798 10.4871C15.2757 10.9306 15.2516 11.4301 15.109 11.8825C15.0792 11.9764 15.044 12.0687 15.004 12.1586L17.5774 15.5186C17.8685 15.4694 18.1486 15.381 18.4139 15.2411C20.5744 14.1014 22.9754 11.5985 22.5515 9.19283C21.8559 5.24455 16.9172 1.96189 12.8512 1.94971L12.8519 1.95013ZM15.7015 3.81988C16.01 3.83347 16.3015 3.94833 16.5411 4.15082C16.7055 4.28962 16.8414 4.46626 16.9414 4.67064C17.0413 4.87502 17.1032 5.10314 17.1235 5.34198C17.1438 5.58081 17.1221 5.82569 17.0597 6.06262C16.9973 6.29955 16.8954 6.52389 16.7599 6.72285C16.6243 6.92181 16.4576 7.09148 16.2695 7.22217C16.0813 7.35286 15.8753 7.44202 15.6633 7.48454C15.4512 7.52707 15.2372 7.52214 15.0335 7.47002C14.8298 7.41791 14.6404 7.31964 14.4761 7.18082C14.3118 7.042 14.1758 6.86536 14.0759 6.66098C13.976 6.4566 13.9141 6.22848 13.8938 5.98965C13.8735 5.75081 13.8952 5.50594 13.9575 5.26901C14.0199 5.03208 14.1218 4.80774 14.2574 4.60879C14.4304 4.35496 14.6533 4.14971 14.9056 4.01186C15.1579 3.87402 15.4316 3.808 15.7015 3.81988ZM10.0835 4.02927C10.4439 4.03996 10.8095 4.21643 11.1092 4.52444C11.4089 4.83244 11.6214 5.25002 11.7055 5.69614C11.7954 6.17338 11.7313 6.64551 11.5272 7.00865C11.3232 7.3718 10.9959 7.59622 10.6174 7.63255C10.43 7.65055 10.2356 7.62182 10.0454 7.54801C9.85523 7.47419 9.67292 7.35673 9.50891 7.20233C9.34491 7.04794 9.20241 6.85963 9.08957 6.64817C8.97673 6.4367 8.89575 6.20623 8.85125 5.96989C8.76135 5.49266 8.82548 5.02053 9.02954 4.65739C9.2336 4.29424 9.56087 4.06982 9.93936 4.03349C9.98685 4.02893 10.0349 4.02737 10.0833 4.0288L10.0835 4.02927ZM5.94303 7.75958C6.36834 7.75959 6.79571 7.92281 7.13116 8.21333C7.4666 8.50386 7.68265 8.8979 7.73178 9.3088C7.78075 9.71968 7.6588 10.1137 7.39275 10.4042C7.12671 10.6947 6.73834 10.858 6.31306 10.858C5.88773 10.8581 5.46031 10.6949 5.12482 10.4043C4.78933 10.1138 4.57326 9.71973 4.52412 9.3088C4.4998 9.1053 4.51721 8.90378 4.57536 8.71576C4.63351 8.52774 4.73126 8.3569 4.86302 8.21299C4.99478 8.06909 5.15797 7.95494 5.34328 7.87706C5.52859 7.79918 5.73239 7.7591 5.94303 7.75911V7.75958ZM19.7464 7.96869C20.1163 7.98674 20.4535 8.14497 20.7031 8.41766C20.8484 8.5763 20.9601 8.76945 21.0318 8.98607C21.1036 9.20269 21.134 9.43855 21.1213 9.68017C21.1086 9.92179 21.0531 10.1644 20.9579 10.3943C20.8627 10.6241 20.7297 10.8366 20.5665 11.0197C20.4033 11.2028 20.2131 11.3528 20.0068 11.4612C19.8004 11.5696 19.582 11.6343 19.3639 11.6515C19.1457 11.6688 18.9323 11.6383 18.7356 11.5618C18.539 11.4853 18.363 11.3642 18.2178 11.2056C18.0725 11.0469 17.9608 10.8538 17.8891 10.6372C17.8174 10.4205 17.787 10.1847 17.7997 9.94307C17.8124 9.70145 17.8679 9.45879 17.9631 9.22896C18.0583 8.99913 18.1913 8.78662 18.3545 8.60357C18.5417 8.39355 18.7641 8.22736 19.0052 8.11743C19.2462 8.00749 19.4997 7.95665 19.7466 7.96869H19.7464ZM11.583 9.27885C11.7228 9.87763 11.6667 10.5068 11.6556 11.073C11.6411 11.818 11.69 12.4005 12.0723 12.751C12.1281 12.8021 12.4482 12.8959 12.7546 12.8983C12.9078 12.8995 13.0565 12.888 13.1633 12.8732C13.2131 12.8664 13.2511 12.8589 13.275 12.8533L13.8853 12.4145L13.8862 12.4138C14.0953 12.2652 14.295 11.9746 14.3948 11.6577C14.4947 11.3408 14.4919 11.0104 14.3948 10.791C14.1684 10.2786 13.6992 9.88818 13.0908 9.62802C12.6347 9.43255 12.1064 9.3163 11.5828 9.2788L11.583 9.27885ZM14.745 13.2073L14.0714 13.723L20.5767 22.2173L21.2499 21.7018L14.7449 13.2075L14.745 13.2073ZM5.35358 16.0273C5.87139 16.0273 6.39174 16.2636 6.80015 16.6843C7.20857 17.1049 7.4716 17.6754 7.53139 18.2703C7.56097 18.5649 7.53976 18.8566 7.46896 19.1287C7.39817 19.4009 7.27917 19.6482 7.11877 19.8565C6.95837 20.0648 6.75971 20.23 6.53413 20.3427C6.30854 20.4554 6.06046 20.5134 5.80404 20.5134C5.28622 20.5134 4.76586 20.2771 4.35744 19.8564C3.94902 19.4358 3.686 18.8652 3.62623 18.2703C3.59666 17.9757 3.61788 17.6841 3.68868 17.4119C3.75948 17.1398 3.87848 16.8925 4.03888 16.6842C4.19928 16.4759 4.39794 16.3107 4.62352 16.198C4.84909 16.0853 5.09717 16.0273 5.35358 16.0273Z" fill="white"/>
</svg>
