<svg width="26" height="18" viewBox="0 0 26 18" fill="none" xmlns="http://www.w3.org/2000/svg">
<path d="M22.9417 1.63977H24.6721V0.839844H24.0243L22.9417 1.63977ZM1.46323 3.76631V3.76139C1.4631 3.75975 1.4631 3.7581 1.46323 3.75646C1.46407 3.75409 1.46407 3.75146 1.46323 3.74908L1.45864 3.72939C1.44599 3.68249 1.42927 3.63696 1.40871 3.5934C1.37792 3.52562 1.34178 3.46077 1.3007 3.39957C1.2769 3.36355 1.25142 3.32884 1.22436 3.29557C1.20997 3.27834 1.19619 3.26053 1.18126 3.2433L1.13418 3.19408C1.10191 3.16054 1.06797 3.1289 1.03251 3.09928C0.99806 3.06728 0.960162 3.04391 0.923412 3.01625C0.886662 2.98854 0.848764 2.97008 0.812561 2.94729C0.778242 2.92704 0.74275 2.90918 0.706303 2.89379C0.672396 2.87902 0.640842 2.8618 0.612131 2.85318L0.536936 2.82734L0.46967 2.8052L0.536936 2.7824L0.615576 2.75656C0.646584 2.74549 0.681639 2.74057 0.720686 2.73072C0.76309 2.72034 0.806044 2.71273 0.849311 2.70793C0.895248 2.70365 0.945834 2.69504 0.997514 2.69445C1.04919 2.69381 1.10487 2.6907 1.16004 2.69445C1.21772 2.69744 1.27522 2.70358 1.33231 2.71285L1.41904 2.72826C1.44776 2.73441 1.47647 2.7418 1.50403 2.74918C1.56145 2.76271 1.61603 2.78182 1.67001 2.80027C1.72398 2.81873 1.76817 2.83836 1.81416 2.8618C1.68081 3.12927 1.58593 3.41679 1.53274 3.71463L1.46323 3.76631ZM10.1454 9.25484C10.1546 9.33922 10.166 9.41978 10.1804 9.49607C10.1939 9.56691 10.2116 9.63678 10.2332 9.70525C10.2513 9.76284 10.2748 9.8183 10.3033 9.87078C10.3148 9.89251 10.3281 9.9131 10.343 9.9323C10.3547 9.95 10.3679 9.96647 10.3825 9.98152L10.4193 10.0173C10.4313 10.0259 10.4423 10.0326 10.4509 10.0382L10.4779 10.056L10.4469 10.0493C10.4365 10.0493 10.4233 10.0443 10.4084 10.04L10.359 10.0185C10.3389 10.0087 10.3197 9.99692 10.3016 9.9834C10.2786 9.96844 10.2569 9.95134 10.2367 9.9323C10.1873 9.8881 10.1423 9.83862 10.1023 9.78465C10.055 9.72141 10.0115 9.65502 9.97195 9.5859C9.92861 9.50904 9.88838 9.43021 9.85137 9.34965C9.77232 9.17539 9.70214 8.99667 9.64115 8.81428C9.59246 8.67043 9.54745 8.52518 9.50618 8.37869C9.6939 8.24393 9.91225 8.1663 10.1379 8.1541C10.127 8.33375 10.1196 8.52324 10.1201 8.71895C10.1195 8.89793 10.1279 9.07683 10.1454 9.25484H10.1454ZM12.0406 10.9476C12.1057 10.9476 12.1702 10.9339 12.2305 10.9071C12.2907 10.8804 12.3454 10.8413 12.3914 10.7919C12.4375 10.7425 12.4741 10.6839 12.499 10.6194C12.5239 10.5549 12.5367 10.4858 12.5367 10.4159V8.15656H12.8623V10.7654C12.8623 10.9064 12.8101 11.0417 12.717 11.1414C12.624 11.2411 12.4978 11.2971 12.3662 11.2971H8.79065L8.86529 10.9482H12.04L12.0406 10.9476ZM24.9736 6.15248H1.821C1.30415 6.76777 0.288818 6.93453 0.288818 7.25996C0.288818 7.65934 3.13672 6.76777 3.0764 9.05299C2.98223 12.6144 1.34265 12.615 1.10831 16.4201C1.10163 16.5277 1.11563 16.6357 1.14945 16.7373C1.18326 16.839 1.23617 16.9321 1.30491 17.0109C1.37364 17.0897 1.45674 17.1526 1.54907 17.1957C1.64139 17.2388 1.74098 17.2611 1.84167 17.2613H5.91053C6.11472 17.2612 6.3126 17.1854 6.47056 17.0468C6.62853 16.9081 6.73686 16.7152 6.77716 16.5007C7.3411 13.5029 7.99292 10.7094 8.46788 8.35273C8.63326 7.53131 9.58657 7.17195 10.1379 7.17195H23.0721C23.4412 7.17227 23.8053 7.08027 24.1354 6.90328C24.4655 6.72628 24.7525 6.46918 24.9736 6.15242L24.9736 6.15248ZM4.42997 14.9077C4.55935 14.9077 4.68581 14.9488 4.79338 15.0258C4.90095 15.1029 4.98479 15.2123 5.0343 15.3404C5.08381 15.4684 5.09676 15.6094 5.07152 15.7453C5.04628 15.8813 4.98398 16.0061 4.89251 16.1041C4.80103 16.2022 4.68447 16.2689 4.55759 16.2959C4.4307 16.323 4.29918 16.3091 4.17965 16.2561C4.06013 16.203 3.95797 16.1132 3.8861 15.9979C3.81422 15.8827 3.77586 15.7472 3.77586 15.6086C3.77587 15.4227 3.84479 15.2445 3.96746 15.113C4.09013 14.9816 4.2565 14.9078 4.42997 14.9078V14.9077ZM5.93115 10.7587C5.93115 10.8973 5.89278 11.0328 5.8209 11.1481C5.74903 11.2633 5.64686 11.3532 5.52734 11.4062C5.40781 11.4593 5.27629 11.4731 5.1494 11.4461C5.02251 11.419 4.90596 11.3523 4.81448 11.2543C4.723 11.1562 4.66071 11.0314 4.63547 10.8954C4.61024 10.7594 4.6232 10.6185 4.67272 10.4905C4.72224 10.3624 4.80608 10.253 4.91366 10.176C5.02124 10.099 5.14771 10.0579 5.27708 10.0579C5.36303 10.0578 5.44814 10.0759 5.52756 10.111C5.60698 10.1462 5.67915 10.1978 5.73995 10.2629C5.80075 10.328 5.84898 10.4053 5.88189 10.4903C5.9148 10.5754 5.93174 10.6666 5.93175 10.7587L5.93115 10.7587ZM3.63405 2.62426H24.7157C24.9094 2.62491 25.0949 2.70779 25.2316 2.85473C25.3683 3.00168 25.4451 3.2007 25.4451 3.40818V4.62711C25.4449 4.80895 25.4266 4.99025 25.3905 5.16793H2.1564C2.2299 4.8517 2.3775 4.20441 2.42688 3.91947C2.54982 3.21617 2.96845 2.62426 3.63635 2.62426H3.63405Z" fill="white"/>
</svg>
