<svg width="22" height="20" viewBox="0 0 22 20" fill="none" xmlns="http://www.w3.org/2000/svg">
<path d="M9.33995 15.5502C9.23868 15.5522 9.13911 15.5239 9.05393 15.4691C8.96876 15.4143 8.90184 15.3354 8.8617 15.2424C8.82156 15.1494 8.81002 15.0465 8.82856 14.947C8.84709 14.8474 8.89486 14.7556 8.96577 14.6832C9.03668 14.6109 9.12752 14.5613 9.22671 14.5408C9.32591 14.5203 9.42896 14.5298 9.52273 14.5681C9.61651 14.6064 9.69676 14.6718 9.75325 14.7558C9.80975 14.8399 9.83993 14.9389 9.83995 15.0402C9.83997 15.1737 9.78762 15.3019 9.69412 15.3973C9.60063 15.4927 9.47347 15.5476 9.33995 15.5502Z" fill="white"/>
<path d="M13.01 15.5503C13.2862 15.5503 13.51 15.3264 13.51 15.0503C13.51 14.7742 13.2862 14.5503 13.01 14.5503C12.7339 14.5503 12.51 14.7742 12.51 15.0503C12.51 15.3264 12.7339 15.5503 13.01 15.5503Z" fill="white"/>
<path d="M13.27 19.4801H8.73004C7.55248 19.4801 6.42315 19.0123 5.59049 18.1797C4.75782 17.347 4.29004 16.2177 4.29004 15.0401C4.29004 13.8625 4.75782 12.7332 5.59049 11.9005C6.42315 11.0679 7.55248 10.6001 8.73004 10.6001H13.27C14.4476 10.6001 15.5769 11.0679 16.4096 11.9005C17.2423 12.7332 17.71 13.8625 17.71 15.0401C17.71 16.2177 17.2423 17.347 16.4096 18.1797C15.5769 19.0123 14.4476 19.4801 13.27 19.4801ZM8.73004 11.6001C8.27829 11.6001 7.83097 11.6891 7.41361 11.862C6.99625 12.0348 6.61703 12.2882 6.29759 12.6076C5.97816 12.9271 5.72477 13.3063 5.55189 13.7237C5.37902 14.141 5.29004 14.5884 5.29004 15.0401C5.29004 15.4918 5.37902 15.9392 5.55189 16.3565C5.72477 16.7739 5.97816 17.1531 6.29759 17.4725C6.61703 17.792 6.99625 18.0454 7.41361 18.2182C7.83097 18.3911 8.27829 18.4801 8.73004 18.4801H13.27C14.1824 18.4801 15.0574 18.1177 15.7025 17.4725C16.3476 16.8274 16.71 15.9524 16.71 15.0401C16.71 14.1278 16.3476 13.2528 15.7025 12.6076C15.0574 11.9625 14.1824 11.6001 13.27 11.6001H8.73004Z" fill="white"/>
<path d="M19 13.0601H16.32C16.1874 13.0601 16.0602 13.0074 15.9664 12.9137C15.8727 12.8199 15.82 12.6927 15.82 12.5601C15.82 12.4275 15.8727 12.3003 15.9664 12.2065C16.0602 12.1128 16.1874 12.0601 16.32 12.0601H19C19.4819 12.0575 19.9433 11.8649 20.284 11.5241C20.6248 11.1834 20.8174 10.722 20.82 10.2401C20.8173 7.92996 19.8992 5.71504 18.2666 4.08058C16.634 2.44612 14.4201 1.52539 12.11 1.5201H9.99998C7.68811 1.52275 5.47168 2.44231 3.83693 4.07705C2.20219 5.7118 1.28263 7.92823 1.27998 10.2401C1.28261 10.722 1.4752 11.1834 1.81595 11.5241C2.1567 11.8649 2.6181 12.0575 3.09998 12.0601H5.67998C5.81259 12.0601 5.93977 12.1128 6.03353 12.2065C6.1273 12.3003 6.17998 12.4275 6.17998 12.5601C6.17998 12.6927 6.1273 12.8199 6.03353 12.9137C5.93977 13.0074 5.81259 13.0601 5.67998 13.0601H3.04998C2.30207 13.0601 1.58479 12.763 1.05594 12.2341C0.527087 11.7053 0.22998 10.988 0.22998 10.2401C0.231285 8.95981 0.485249 7.69236 0.977316 6.5104C1.46938 5.32845 2.18988 4.25522 3.0975 3.35224C4.00512 2.44926 5.08203 1.73429 6.2665 1.24829C7.45096 0.762296 8.7197 0.514838 9.99998 0.520102H12.11C14.6836 0.525386 17.1503 1.5501 18.9701 3.36993C20.79 5.18977 21.8147 7.65647 21.82 10.2301C21.82 10.9789 21.5232 11.6972 20.9946 12.2277C20.4661 12.7581 19.7488 13.0575 19 13.0601Z" fill="white"/>
<path d="M2.16999 10.3301C1.62389 10.3216 1.08436 10.2096 0.579989 10.0001C0.518887 9.97581 0.463166 9.93975 0.416014 9.89395C0.368862 9.84814 0.331205 9.79349 0.305198 9.73312C0.279191 9.67274 0.265344 9.60784 0.264451 9.5421C0.263557 9.47637 0.275633 9.41111 0.299989 9.35005C0.322019 9.28846 0.356408 9.23201 0.401046 9.18418C0.445683 9.13635 0.499626 9.09816 0.559562 9.07194C0.619498 9.04571 0.684161 9.03202 0.749581 9.0317C0.815001 9.03137 0.879797 9.04443 0.939989 9.07005C1.33272 9.22041 1.74946 9.29834 2.16999 9.30005C2.86037 9.29519 3.53126 9.07061 4.08543 8.65885C4.6396 8.2471 5.04824 7.66957 5.25214 7.00997C5.45604 6.35037 5.44459 5.64298 5.21945 4.99032C4.99432 4.33767 4.56719 3.77366 3.99999 3.38005C3.90782 3.29957 3.84836 3.18809 3.83287 3.06671C3.81738 2.94533 3.84694 2.82249 3.91594 2.72144C3.98495 2.62039 4.08862 2.54816 4.20731 2.51841C4.32601 2.48867 4.45149 2.50349 4.55999 2.56005C5.31329 3.06974 5.88322 3.80764 6.18599 4.6653C6.48875 5.52296 6.50839 6.45513 6.24201 7.32477C5.97563 8.19442 5.43729 8.95567 4.70612 9.49663C3.97495 10.0376 3.08952 10.3297 2.17999 10.3301H2.16999Z" fill="white"/>
<path d="M21.26 10.3103C19.6974 10.1921 18.2367 9.48932 17.1691 8.34207C16.1016 7.19483 15.5056 5.68741 15.5 4.12031C15.4979 3.36454 15.637 2.61503 15.91 1.91031C15.9343 1.84921 15.9703 1.79349 16.0161 1.74634C16.0619 1.69918 16.1166 1.66153 16.177 1.63552C16.2373 1.60951 16.3022 1.59567 16.368 1.59477C16.4337 1.59388 16.499 1.60596 16.56 1.63031C16.6216 1.65234 16.6781 1.68673 16.7259 1.73137C16.7737 1.77601 16.8119 1.82995 16.8381 1.88988C16.8644 1.94982 16.8781 2.01448 16.8784 2.0799C16.8787 2.14532 16.8657 2.21012 16.84 2.27031C16.5612 3.02418 16.4605 3.83235 16.546 4.63159C16.6314 5.43083 16.9006 6.19946 17.3325 6.87735C17.7644 7.55524 18.3473 8.124 19.0356 8.53914C19.7239 8.95427 20.4989 9.20452 21.3 9.27031C21.4326 9.27031 21.5598 9.32299 21.6536 9.41676C21.7473 9.51053 21.8 9.6377 21.8 9.77031C21.8 9.90292 21.7473 10.0301 21.6536 10.1239C21.5598 10.2176 21.4326 10.2703 21.3 10.2703L21.26 10.3103Z" fill="white"/>
</svg>
